<?xml version="1.0" encoding="utf-8"?>
<!-- Generator: Adobe Illustrator 26.5.0, SVG Export Plug-In . SVG Version: 6.00 Build 0)  -->
<svg version="1.1" id="Layer_1" xmlns="http://www.w3.org/2000/svg" xmlns:xlink="http://www.w3.org/1999/xlink" x="0px" y="0px"
	 viewBox="0 0 338.2 360.3" style="enable-background:new 0 0 338.2 360.3;" xml:space="preserve">
<style type="text/css">
	.st0{fill:#8DC63F;}
	.st1{fill:#FFFFFF;}
</style>
<g>
	<path d="M308.9,180.5c0,77.5-62.9,140.4-140.4,140.4S28.1,258.1,28.1,180.5S91,40.1,168.5,40.1S308.9,103,308.9,180.5L308.9,180.5z
		"/>
	<path class="st0" d="M124.7,111.6h11c2.8,0,5,0.8,6.4,2.2c1.1,1.1,1.6,2.4,1.6,4v0.1c0,2.9-1.7,4.5-3.5,5.4c2.9,1,4.9,2.6,4.9,5.9
		v0.1c0,4.4-3.6,6.7-9,6.7h-11.3v-24.4H124.7z M134.8,121.9c2.8,0,4.6-1.1,4.6-3.3v-0.1c0-1.9-1.5-3.1-4.3-3.1h-6.2v6.5H134.8
		L134.8,121.9z M136.1,132.2c2.9,0,4.7-1.1,4.7-3.4v-0.1c0-2.1-1.6-3.3-5-3.3H129v6.7L136.1,132.2L136.1,132.2z"/>
	<path class="st0" d="M165.6,111.4h4l10.7,24.6h-4.5l-2.5-5.9h-11.5l-2.5,5.9h-4.4L165.6,111.4L165.6,111.4z M171.7,126.3l-4.2-9.8
		l-4.2,9.8H171.7L171.7,126.3z"/>
	<path class="st0" d="M191.5,111.6h10.9c3.1,0,5.5,0.9,7,2.4c1.3,1.3,2,3.1,2,5.3v0.1c0,4-2.4,6.4-5.8,7.4l6.6,9.2h-5.1l-6-8.5h-5.4
		v8.5h-4.3L191.5,111.6L191.5,111.6z M202.1,123.7c3.1,0,5-1.6,5-4.1v-0.1c0-2.6-1.9-4-5.1-4h-6.2v8.2H202.1L202.1,123.7z"/>
	<path class="st1" d="M136.1,201.6l27.2-31.1l1.3-1.4l0,0v-4.4l0,0V156v-5.9h-5.9h-5.8h-29.3h-11.7v5.9h11.7h29.3h5.8v8.7h-5.8h-41
		v5.9h41h3.1L127,204l1.6,3.5h4.6c15.1,0,26.2,6.5,26.2,18.3v0.2c0,11.1-9.5,18.6-20.8,18.6c-11.1,0-19.5-4.9-26.2-13.5l-4.8,4
		c6.8,8.9,17.2,15.1,30.9,15.1c14.5,0,27.4-9.9,27.4-24.5v-0.2C165.9,210,152.1,202.6,136.1,201.6L136.1,201.6z"/>
	<path class="st1" d="M229.2,235.3v-6h-47.6l25.7-23.3c14.8-13.5,21-21.1,21-32.7v-0.2c0-13.1-10.7-23.1-25-23.1
		c-14.8,0-22.6,6.8-29.9,18l4.7,3.1c7-10.1,13.9-15.6,24.6-15.6c10.1,0,19,7.1,19,18c0,8.9-4.8,16.1-18.6,28.7l-29.8,26.9l-1.6,1.4
		v4.7v8.5v5.9h5.9h10.6h24.5h16.5v-5.9h-16.5h-24.5h-10.6v-8.5L229.2,235.3L229.2,235.3z"/>
</g>
</svg>
