<?xml version="1.0" encoding="utf-8"?>
<!-- Generator: Adobe Illustrator 26.5.0, SVG Export Plug-In . SVG Version: 6.00 Build 0)  -->
<svg version="1.1" id="Layer_1" xmlns="http://www.w3.org/2000/svg" xmlns:xlink="http://www.w3.org/1999/xlink" x="0px" y="0px"
	 viewBox="0 0 170 70" style="enable-background:new 0 0 170 70;" xml:space="preserve">
<style type="text/css">
	.st0{fill:#C9D2CB;}
</style>
<path class="st0" d="M32,30.6c0,0.5-0.3,1-0.9,1.6c-3.5,0.3-6.9,0.6-10.3,0.9c-0.7-1.3-1.5-3-2.3-5.2l-1.2,1.5v4.1
	c-3.8,0.4-7.5,0.8-11,1.3c0-0.1,0-0.2,0-0.3V10.2c0-0.7,0.8-1.3,2.2-1.8c1.5-0.5,3.2-0.8,5.2-0.8c1.6,0,2.7,0.3,3.1,1
	c0.3,0.5,0.5,0.9,0.5,1.2v6.5h0.3c0-0.1,0.4-1.2,1.2-3.3c1.5-3.9,2.6-5.8,3.3-5.8c1.3,0,3.1,0.4,5.5,1.2c1.1,0.4,2.1,0.9,2.9,1.6
	c0.8,0.7,1.2,1.5,1.2,2.3c0,0.5-0.5,1.6-1.6,3.1s-2.7,3.5-4.9,6.1c0.5,0.5,1.1,1.2,1.9,2s1.8,2,3.1,3.7C31.3,28.7,32,29.9,32,30.6
	 M56.6,27.3c-1.7,0-4.9,0.2-9.5,0.5v-2.5l7.2,0.1c0.5,0,0.8-0.4,1.1-1.3s0.4-2.1,0.4-3.8c0-1.7-0.3-2.5-1.1-2.5
	c-1.2,0-3.7,0.1-7.6,0.2v-2.7c4,0.3,6.9,0.5,8.7,0.5c0.4,0,0.7-0.5,1-1.4c0.2-1,0.3-2.4,0.3-4.2s-0.3-2.7-0.8-2.7H40.4
	c-1.6,0-2.7,0.1-3.4,0.4c-0.6,0.3-0.9,0.8-0.9,1.5v22.3c7.4-0.5,14.7-0.8,21.4-0.8c0-0.3,0-0.6,0-0.9C57.4,28.2,57.2,27.3,56.6,27.3
	 M80.5,26.6c-1.6,0-4.1,0.1-7.3,0.3V9.4c0-0.3-0.1-0.5-0.3-0.8c-0.5-0.7-1.6-1.1-3.3-1.1c-1.9,0-3.6,0.3-5.1,0.8
	C63,8.9,62.2,9.4,62.2,10v21c2.3,0.1,4.6,0.2,6.6,0.3c3.6,0.3,7.7,0.6,12.3,1c0.1-0.9,0.1-1.9,0.1-3.1C81.3,27.5,81,26.6,80.5,26.6
	 M107.7,32c0.8-1.3,1.2-2.7,1.2-4.3c0-1.5-0.3-2.8-0.9-4s-1.3-2-2.2-2.6c-0.9-0.6-1.8-1.2-2.8-1.6c-1-0.5-2-0.8-2.8-1
	c-0.9-0.2-1.6-0.5-2.2-0.8s-0.9-0.6-0.9-1.1s0.2-0.8,0.6-1s1.2-0.3,2.3-0.3c1.2,0,2.6,0.4,4.3,1.2c0.6,0.2,0.9,0.3,1,0.3
	c0.6,0,1.2-0.8,1.9-2.4s1-3.1,1-4.4c0-0.4-0.4-0.8-1.2-1.2c-0.8-0.4-2.1-0.8-4-1.1c-1.9-0.3-4.2-0.5-6.8-0.5c-7,0-10.5,2.9-10.5,8.8
	c0,1.4,0.3,2.6,0.9,3.7s1.3,1.9,2.2,2.5c0.9,0.6,1.8,1.1,2.8,1.6s2,0.8,2.8,1.1c0.9,0.3,1.6,0.5,2.2,0.9c0.6,0.3,0.9,0.7,0.9,1.1
	s-0.1,0.8-0.5,1s-1,0.3-2.1,0.3s-2.6-0.3-4.7-1.1C88.1,26.4,87,26,86.9,26c-0.6,0-1.1,0.8-1.5,2.4c-0.4,1.5-0.6,2.9-0.6,4.3
	c6.3,0.5,13.4,1,20.8,1.3C106.6,33.4,107.2,32.8,107.7,32 M134.8,30.1c0-1.8-0.3-2.8-0.8-2.8c-1.7,0-4.9,0.2-9.5,0.5v-2.5l7.2,0.1
	c0.5,0,0.8-0.4,1.1-1.3s0.4-2.1,0.4-3.8c0-1.6-0.3-2.5-1.1-2.5c-1.2,0-3.7,0.1-7.6,0.2v-2.7c4,0.3,6.9,0.5,8.7,0.5
	c0.4,0,0.7-0.5,1-1.4c0.2-1,0.3-2.4,0.3-4.2s-0.3-2.7-0.8-2.7h-15.9c-1.6,0-2.7,0.1-3.4,0.4c-0.6,0.3-0.9,0.8-0.9,1.5v24.8
	c6.9,0.2,13.9,0.3,20.9,0.3c0-0.1,0.1-0.2,0.1-0.3C134.6,33.3,134.8,31.9,134.8,30.1 M156.4,27.7c5.3-11.4,7.9-17.3,7.9-17.8
	s-0.3-1-1-1.5c-0.6-0.5-1.8-0.7-3.4-0.7s-3.4,0.2-5.2,0.7s-2.7,1.1-2.8,1.8l-0.8,10.4h-0.4L149.6,10c-0.1-1.5-1.5-2.2-4-2.2
	c-2,0-3.8,0.3-5.6,0.9c-1.8,0.6-2.7,1.2-2.7,1.7c0,0.9,2.6,6.7,7.8,17.4v6.5c3.8-0.2,7.5-0.5,11-0.9v-5.7
	C156.1,27.7,156.4,27.7,156.4,27.7z M6,60.6c0,0.4,0.2,0.6,0.6,0.8s1.3,0.3,2.7,0.3s2.9-0.1,4.5-0.3s2.4-0.4,2.4-0.8v-7.4l6.1,0.2
	c0.4,0,0.8-0.5,1-1.5s0.4-2.1,0.4-3.2s-0.1-1.9-0.2-2.3c-0.1-0.4-0.4-0.6-0.8-0.6c-1.1,0-3.3,0.1-6.6,0.2v-2.5l7.5,0.4
	c0.4,0,0.7-0.5,0.9-1.4c0.2-1,0.3-2.4,0.3-4.2c0-0.1,0-0.1,0-0.2c-6.6,0.6-13.2,1.3-19,2.1L6,60.6L6,60.6z M28.1,60.6
	c0,0.4,0.2,0.6,0.6,0.8s1.2,0.3,2.4,0.3h15.6c0.4,0,0.7-0.4,0.9-1.3s0.3-2.2,0.3-3.9s-0.3-2.6-0.8-2.6c-1.6,0-4.6,0.2-8.8,0.5V52
	l6.6,0.1c0.4,0,0.8-0.4,1-1.2c0.3-0.8,0.4-2,0.4-3.5s-0.3-2.3-1-2.3c-1.1,0-3.5,0.1-7.1,0.2v-2.5c3.8,0.3,6.5,0.5,8.1,0.5
	c0.4,0,0.7-0.4,0.9-1.3s0.3-2.2,0.3-3.9c0-0.6,0-1.1-0.1-1.5c-6.3,0.3-12.9,0.7-19.4,1.2L28.1,60.6L28.1,60.6z M63.3,47.4
	c1.4,0,2.1-1.1,2.1-3.3c0-1.1-0.2-1.9-0.6-2.4S64,41,63.5,41h-1.2v6.4H63.3 M52.3,36.4c6.1-0.1,11.7-0.1,16.5,0.3
	c1.5,0.1,3,0.3,4.7,0.4c0.1,0.1,0.2,0.2,0.3,0.3c0.4,0.4,0.8,0.9,1.1,1.5c0.7,1,1,2.5,1,4.5c0,1.9-0.3,3.6-1,4.9
	c-0.6,1.3-1.5,2.3-2.6,3c2.8,4.5,4.2,7.3,4.2,8.5s-2.4,1.8-7.3,1.8c-1.4,0-2.4-0.1-2.9-0.2s-0.9-0.4-1-0.8L62.9,53h-0.6v7.5
	c0,0.3-0.8,0.6-2.3,0.8s-3,0.3-4.5,0.3s-2.5-0.1-2.9-0.3S52,60.9,52,60.5V37C52.1,36.8,52.2,36.6,52.3,36.4 M89.8,47.4h1
	c1.4,0,2.1-1.1,2.1-3.3c0-1.1-0.2-1.9-0.6-2.4S91.5,41,91,41h-1.2V47.4L89.8,47.4z M79.4,37.6c6.8,0.5,14.6,1.1,23,1.6
	c0.5,1,0.8,2.4,0.8,4.2c0,1.9-0.3,3.6-1,4.9c-0.6,1.3-1.5,2.3-2.6,3c2.8,4.5,4.2,7.3,4.2,8.5s-2.4,1.8-7.3,1.8
	c-1.4,0-2.4-0.1-2.9-0.2s-0.9-0.4-1-0.8L90.2,53h-0.6v7.5c0,0.3-0.8,0.6-2.3,0.8s-3,0.3-4.5,0.3s-2.5-0.1-2.9-0.3s-0.6-0.4-0.6-0.8
	L79.4,37.6L79.4,37.6z M120.7,53.4c0.2-1.2,0.3-2.8,0.3-4.9s-0.1-3.7-0.3-4.8c-0.2-1.1-0.4-1.8-0.7-2.2s-0.7-0.5-1.2-0.5
	s-0.9,0.2-1.2,0.5s-0.5,1.1-0.7,2.2s-0.3,2.7-0.3,4.8s0.1,3.7,0.3,4.9c0.2,1.2,0.4,1.9,0.7,2.3s0.7,0.5,1.2,0.5s0.9-0.2,1.2-0.5
	S120.5,54.6,120.7,53.4 M108.3,39.5c7.1,0.3,14.4,0.5,21.8,0.5c1.1,2,1.7,4.7,1.7,8.2c0,4.7-1.2,8.2-3.5,10.4
	c-2.3,2.2-5.5,3.4-9.5,3.4c-2,0-3.8-0.2-5.2-0.6c-1.4-0.4-2.8-1.1-4-2.1c-2.5-1.9-3.7-5.7-3.7-11.2c0-2.3,0.3-4.3,1-6
	C107.2,41.2,107.7,40.3,108.3,39.5 M147.9,39.5v7.2h-0.1l-2.6-7.1c-3.6,0.2-7.3,0.3-11,0.3v20.6c0,0.4,0.2,0.6,0.6,0.8
	c0.4,0.2,1.4,0.3,2.9,0.3s3-0.1,4.5-0.3s2.3-0.5,2.3-0.8v-8.7h0.2l3.4,9c0.2,0.5,1.2,0.7,2.9,0.7c1.8,0,3.5-0.1,5-0.3
	s2.3-0.5,2.3-0.8V38.3C154.9,39,151.4,39.3,147.9,39.5"/>
</svg>
